<mxfile host="app.diagrams.net" modified="2023-07-21T04:38:49.466Z" agent="Mozilla/5.0 (Macintosh; Intel Mac OS X 10_15_7) AppleWebKit/537.36 (KHTML, like Gecko) Chrome/113.0.0.0 Safari/537.36" version="21.3.7" etag="j9MrfVkoDDB5brwEltxh" type="github">
  <diagram name="Page-1" id="IzTWVS_Bo0rTdDvOQD--">
    <mxGraphModel>
      <root>
        <mxCell id="0" />
        <mxCell id="1" parent="0" />
      </root>
    </mxGraphModel>
  </diagram>
</mxfile>
